<svg width="139" height="143" viewBox="0 0 139 143" fill="none" xmlns="http://www.w3.org/2000/svg">
<circle cx="43.5" cy="43.5" r="43.5" fill="#EBFAE4"/>
<circle cx="120" cy="123" r="19" fill="#EBFAE4"/>
<g filter="url(#filter0_d)">
<rect x="48" y="12" width="70" height="124" rx="14" fill="#0065A5"/>
<rect x="53" y="24.2344" width="60" height="95" rx="2" fill="white"/>
<circle cx="82.7832" cy="127.784" r="4.28834" fill="white"/>
</g>
<rect x="59" y="50.2344" width="48" height="38.2353" fill="#E5EAEE"/>
<rect x="59" y="97" width="23" height="8" rx="1" fill="#E5EAEE"/>
<rect x="59" y="37.2344" width="48" height="8.41177" fill="#E5EAEE"/>
<rect x="84" y="97" width="23" height="8" rx="1" fill="#48A4DE"/>
<path d="M112.374 109.544L110.368 104.886C109.949 104.027 108.909 103.668 108.042 104.091C107.768 104.225 107.544 104.422 107.382 104.658C106.91 103.945 105.967 103.675 105.171 104.063C104.898 104.197 104.674 104.394 104.511 104.629C104.038 103.917 103.095 103.646 102.301 104.035C102.032 104.166 101.812 104.357 101.65 104.585L100.653 102.541C100.234 101.682 99.1937 101.323 98.3271 101.746C97.4677 102.164 97.1095 103.205 97.5289 104.064L101.361 111.921L99.1004 111.28C98.1177 111.092 97.1311 111.662 96.8051 112.609C96.5607 113.319 96.9395 114.096 97.6494 114.34L104.35 117.118C105.611 117.552 106.966 117.469 108.165 116.884L109.98 115.999C111.178 115.416 112.076 114.4 112.509 113.14C112.914 111.964 112.866 110.687 112.374 109.544ZM109.582 115.183L107.767 116.069C106.786 116.547 105.678 116.615 104.646 116.259L97.9449 113.482C97.708 113.4 97.5819 113.142 97.6635 112.905C97.8432 112.383 98.3875 112.068 98.9359 112.173L102.081 112.97C102.249 113 102.419 112.933 102.523 112.797C102.625 112.661 102.643 112.478 102.568 112.325L98.3447 103.666C98.1449 103.257 98.3157 102.761 98.7314 102.557C98.9365 102.458 99.1629 102.45 99.3629 102.519C99.5629 102.588 99.7366 102.733 99.8368 102.939L102.653 108.712C102.763 108.937 103.035 109.031 103.26 108.921C103.372 108.865 103.452 108.77 103.49 108.66C103.528 108.55 103.523 108.426 103.468 108.313L102.318 105.955C102.118 105.546 102.289 105.05 102.706 104.847C103.114 104.648 103.611 104.819 103.81 105.227L104.961 107.586C105.071 107.811 105.343 107.905 105.568 107.795C105.68 107.74 105.76 107.644 105.798 107.534C105.836 107.424 105.831 107.3 105.776 107.187L105.189 105.983C104.989 105.574 105.16 105.078 105.576 104.875C105.985 104.676 106.482 104.847 106.681 105.256L107.271 106.465C107.273 106.466 107.272 106.466 107.272 106.466L107.272 106.467L107.273 106.468L107.273 106.47L107.275 106.471C107.388 106.689 107.655 106.777 107.876 106.668C108.101 106.559 108.195 106.286 108.085 106.061L108.061 106.012C107.964 105.813 107.95 105.589 108.022 105.38C108.094 105.172 108.242 105.004 108.447 104.903C108.857 104.705 109.352 104.876 109.543 105.264L111.541 109.903C111.942 110.838 111.982 111.883 111.651 112.845C111.296 113.875 110.562 114.705 109.582 115.183Z" fill="white"/>
<path d="M109.582 115.183L107.767 116.069C106.786 116.547 105.678 116.615 104.646 116.259L97.9449 113.482C97.708 113.4 97.5819 113.142 97.6635 112.905C97.8432 112.383 98.3875 112.068 98.9359 112.173L102.081 112.97C102.249 113 102.419 112.933 102.523 112.797C102.625 112.661 102.643 112.478 102.568 112.325L98.3447 103.666C98.1449 103.257 98.3157 102.761 98.7314 102.557C98.9365 102.458 99.1629 102.45 99.3629 102.519C99.5629 102.588 99.7366 102.733 99.8368 102.939L102.653 108.712C102.763 108.937 103.035 109.031 103.26 108.921C103.372 108.865 103.452 108.77 103.49 108.66C103.528 108.55 103.523 108.426 103.468 108.313L102.318 105.955C102.118 105.546 102.289 105.05 102.706 104.847C103.114 104.648 103.611 104.819 103.81 105.227L104.961 107.586C105.071 107.811 105.343 107.905 105.568 107.795C105.68 107.74 105.76 107.644 105.798 107.534C105.836 107.424 105.831 107.3 105.776 107.187L105.189 105.983C104.989 105.574 105.16 105.078 105.576 104.875C105.985 104.676 106.482 104.847 106.681 105.256L107.271 106.465C107.273 106.466 107.272 106.466 107.272 106.466L107.272 106.467L107.273 106.468L107.273 106.47L107.275 106.471C107.388 106.689 107.655 106.777 107.876 106.668C108.101 106.559 108.195 106.286 108.085 106.061L108.061 106.012C107.964 105.813 107.95 105.589 108.022 105.38C108.094 105.172 108.242 105.004 108.447 104.903C108.857 104.705 109.352 104.876 109.543 105.264L111.541 109.903C111.942 110.838 111.982 111.883 111.651 112.845C111.296 113.875 110.562 114.705 109.582 115.183Z" fill="white"/>
<path d="M112.374 109.544L110.368 104.886C109.949 104.027 108.909 103.668 108.042 104.091C107.768 104.225 107.544 104.422 107.382 104.658C106.91 103.945 105.967 103.675 105.171 104.063C104.898 104.197 104.674 104.394 104.511 104.629C104.038 103.917 103.095 103.646 102.301 104.035C102.032 104.166 101.812 104.357 101.65 104.585L100.653 102.541C100.234 101.682 99.1937 101.323 98.3271 101.746C97.4677 102.164 97.1095 103.205 97.5289 104.064L101.361 111.921L99.1004 111.28C98.1177 111.092 97.1311 111.662 96.8051 112.609C96.5607 113.319 96.9395 114.096 97.6494 114.34L104.35 117.118C105.611 117.552 106.966 117.469 108.165 116.884L109.98 115.999C111.178 115.416 112.076 114.4 112.509 113.14C112.914 111.964 112.866 110.687 112.374 109.544ZM109.582 115.183L107.767 116.069C106.786 116.547 105.678 116.615 104.646 116.259L97.9449 113.482C97.708 113.4 97.5819 113.142 97.6635 112.905C97.8432 112.383 98.3875 112.068 98.9359 112.173L102.081 112.97C102.249 113 102.419 112.933 102.523 112.797C102.625 112.661 102.643 112.478 102.568 112.325L98.3447 103.666C98.1449 103.257 98.3157 102.761 98.7314 102.557C98.9365 102.458 99.1629 102.45 99.3629 102.519C99.5629 102.588 99.7366 102.733 99.8368 102.939L102.653 108.712C102.763 108.937 103.035 109.031 103.26 108.921C103.372 108.865 103.452 108.77 103.49 108.66C103.528 108.55 103.523 108.426 103.468 108.313L102.318 105.955C102.118 105.546 102.289 105.05 102.706 104.847C103.114 104.648 103.611 104.819 103.81 105.227L104.961 107.586C105.071 107.811 105.343 107.905 105.568 107.795C105.68 107.74 105.76 107.644 105.798 107.534C105.836 107.424 105.831 107.3 105.776 107.187L105.189 105.983C104.989 105.574 105.16 105.078 105.576 104.875C105.985 104.676 106.482 104.847 106.681 105.256L107.271 106.465C107.273 106.466 107.272 106.466 107.272 106.466L107.272 106.467L107.273 106.468L107.273 106.47L107.275 106.471C107.388 106.689 107.655 106.777 107.876 106.668C108.101 106.559 108.195 106.286 108.085 106.061L108.061 106.012C107.964 105.813 107.95 105.589 108.022 105.38C108.094 105.172 108.242 105.004 108.447 104.903C108.857 104.705 109.352 104.876 109.543 105.264L111.541 109.903C111.942 110.838 111.982 111.883 111.651 112.845C111.296 113.875 110.562 114.705 109.582 115.183Z" fill="#0C2A4B"/>
<path d="M103.066 102.716C102.917 101.118 101.845 99.7486 100.334 99.2284C98.2044 98.4952 95.8745 99.6316 95.1412 101.761C94.621 103.272 95.0403 104.961 96.2077 106.062C96.2564 106.108 96.3123 106.141 96.3716 106.161C96.5347 106.217 96.7234 106.177 96.8499 106.044C97.0214 105.861 97.0127 105.573 96.831 105.401C95.9221 104.544 95.5954 103.231 95.9997 102.057C96.5701 100.4 98.3818 99.5164 100.039 100.087C101.213 100.491 102.046 101.557 102.162 102.801C102.185 103.051 102.406 103.235 102.656 103.211C102.906 103.187 103.09 102.966 103.066 102.716Z" fill="#0C2A4B"/>
<defs>
<filter id="filter0_d" x="43" y="9" width="80" height="134" filterUnits="userSpaceOnUse" color-interpolation-filters="sRGB">
<feFlood flood-opacity="0" result="BackgroundImageFix"/>
<feColorMatrix in="SourceAlpha" type="matrix" values="0 0 0 0 0 0 0 0 0 0 0 0 0 0 0 0 0 0 127 0"/>
<feOffset dy="2"/>
<feGaussianBlur stdDeviation="2.5"/>
<feColorMatrix type="matrix" values="0 0 0 0 0 0 0 0 0 0.249949 0 0 0 0 0.408333 0 0 0 0.4 0"/>
<feBlend mode="normal" in2="BackgroundImageFix" result="effect1_dropShadow"/>
<feBlend mode="normal" in="SourceGraphic" in2="effect1_dropShadow" result="shape"/>
</filter>
</defs>
</svg>
