<svg width="181" height="160" viewBox="0 0 181 160" fill="none" xmlns="http://www.w3.org/2000/svg">
<circle cx="63.5" cy="63.5" r="63.5" fill="#E4F1FA"/>
<rect x="37.2646" y="32.5" width="143" height="127" rx="1.5" fill="white" stroke="#C6D0D9"/>
<rect x="43" y="71" width="132" height="28" fill="#007FD2"/>
<rect x="54.3525" y="41" width="3.05882" height="110" fill="#E4F1FA"/>
<circle cx="56.0003" cy="85.7649" r="3.82353" fill="white"/>
<rect x="71.1768" y="49" width="79.5294" height="12" fill="#E5EAEE"/>
<rect x="71.1768" y="109" width="79.5294" height="12" fill="#E5EAEE"/>
<rect x="71.1768" y="131" width="79.5294" height="12" fill="#E5EAEE"/>
<path d="M74.9952 90.168C74.4912 90.168 74.0385 90.0793 73.6372 89.902C73.2359 89.7247 72.8952 89.4727 72.6152 89.146C72.3445 88.8193 72.1345 88.4227 71.9852 87.956C71.8452 87.4893 71.7752 86.9667 71.7752 86.388C71.7752 85.8093 71.8452 85.2867 71.9852 84.82C72.1345 84.3533 72.3445 83.9567 72.6152 83.63C72.8952 83.3033 73.2359 83.0513 73.6372 82.874C74.0385 82.6967 74.4912 82.608 74.9952 82.608C75.7139 82.608 76.2879 82.7667 76.7172 83.084C77.1559 83.392 77.4825 83.798 77.6972 84.302L76.7592 84.778C76.6285 84.4047 76.4139 84.1153 76.1152 83.91C75.8165 83.7047 75.4432 83.602 74.9952 83.602C74.6592 83.602 74.3652 83.658 74.1132 83.77C73.8612 83.8727 73.6512 84.022 73.4832 84.218C73.3152 84.4047 73.1892 84.6333 73.1052 84.904C73.0212 85.1653 72.9792 85.4547 72.9792 85.772V87.004C72.9792 87.6387 73.1472 88.1613 73.4832 88.572C73.8285 88.9733 74.3325 89.174 74.9952 89.174C75.9005 89.174 76.5539 88.754 76.9552 87.914L77.7672 88.46C77.5339 88.9827 77.1839 89.398 76.7172 89.706C76.2599 90.014 75.6859 90.168 74.9952 90.168ZM80.5382 90C80.1462 90 79.8475 89.8927 79.6422 89.678C79.4462 89.454 79.3482 89.174 79.3482 88.838V79.64H80.4682V89.02H81.5322V90H80.5382ZM83.7227 81.082C83.48 81.082 83.3027 81.026 83.1907 80.914C83.088 80.7927 83.0367 80.6387 83.0367 80.452V80.27C83.0367 80.0833 83.088 79.934 83.1907 79.822C83.3027 79.7007 83.48 79.64 83.7227 79.64C83.9653 79.64 84.138 79.7007 84.2407 79.822C84.3527 79.934 84.4087 80.0833 84.4087 80.27V80.452C84.4087 80.6387 84.3527 80.7927 84.2407 80.914C84.138 81.026 83.9653 81.082 83.7227 81.082ZM83.1627 82.776H84.2827V90H83.1627V82.776ZM89.3507 90.168C88.8467 90.168 88.394 90.0793 87.9927 89.902C87.5913 89.7247 87.2507 89.4727 86.9707 89.146C86.7 88.8193 86.49 88.4227 86.3407 87.956C86.2007 87.4893 86.1307 86.9667 86.1307 86.388C86.1307 85.8093 86.2007 85.2867 86.3407 84.82C86.49 84.3533 86.7 83.9567 86.9707 83.63C87.2507 83.3033 87.5913 83.0513 87.9927 82.874C88.394 82.6967 88.8467 82.608 89.3507 82.608C90.0693 82.608 90.6433 82.7667 91.0727 83.084C91.5113 83.392 91.838 83.798 92.0527 84.302L91.1147 84.778C90.984 84.4047 90.7693 84.1153 90.4707 83.91C90.172 83.7047 89.7987 83.602 89.3507 83.602C89.0147 83.602 88.7207 83.658 88.4687 83.77C88.2167 83.8727 88.0067 84.022 87.8387 84.218C87.6707 84.4047 87.5447 84.6333 87.4607 84.904C87.3767 85.1653 87.3347 85.4547 87.3347 85.772V87.004C87.3347 87.6387 87.5027 88.1613 87.8387 88.572C88.184 88.9733 88.688 89.174 89.3507 89.174C90.256 89.174 90.9093 88.754 91.3107 87.914L92.1227 88.46C91.8893 88.9827 91.5393 89.398 91.0727 89.706C90.6153 90.014 90.0413 90.168 89.3507 90.168ZM93.7037 79.64H94.8237V86.206H94.8797L95.9857 84.974L98.0297 82.776H99.3877L96.7137 85.632L99.6537 90H98.2957L95.9017 86.318L94.8237 87.424V90H93.7037V79.64ZM106.565 90.168C105.893 90.168 105.328 90.042 104.871 89.79C104.423 89.5287 104.036 89.1833 103.709 88.754L104.507 88.11C104.787 88.4647 105.1 88.74 105.445 88.936C105.79 89.1227 106.192 89.216 106.649 89.216C107.125 89.216 107.494 89.1133 107.755 88.908C108.026 88.7027 108.161 88.4133 108.161 88.04C108.161 87.76 108.068 87.522 107.881 87.326C107.704 87.1207 107.377 86.9807 106.901 86.906L106.327 86.822C105.991 86.7753 105.683 86.7053 105.403 86.612C105.123 86.5093 104.876 86.3787 104.661 86.22C104.456 86.052 104.292 85.8467 104.171 85.604C104.059 85.3613 104.003 85.072 104.003 84.736C104.003 84.3813 104.068 84.0733 104.199 83.812C104.33 83.5413 104.507 83.3173 104.731 83.14C104.964 82.9627 105.24 82.832 105.557 82.748C105.874 82.6547 106.215 82.608 106.579 82.608C107.167 82.608 107.657 82.7107 108.049 82.916C108.45 83.1213 108.8 83.406 109.099 83.77L108.357 84.442C108.198 84.218 107.965 84.0173 107.657 83.84C107.349 83.6533 106.962 83.56 106.495 83.56C106.028 83.56 105.674 83.6627 105.431 83.868C105.198 84.064 105.081 84.3347 105.081 84.68C105.081 85.0347 105.198 85.2913 105.431 85.45C105.674 85.6087 106.019 85.7253 106.467 85.8L107.027 85.884C107.83 86.0053 108.399 86.2387 108.735 86.584C109.071 86.92 109.239 87.3633 109.239 87.914C109.239 88.614 109.001 89.1647 108.525 89.566C108.049 89.9673 107.396 90.168 106.565 90.168ZM115.669 88.824H115.613C115.539 88.992 115.445 89.16 115.333 89.328C115.231 89.4867 115.1 89.6313 114.941 89.762C114.783 89.8833 114.591 89.9813 114.367 90.056C114.143 90.1307 113.882 90.168 113.583 90.168C112.837 90.168 112.244 89.93 111.805 89.454C111.367 88.9687 111.147 88.2873 111.147 87.41V82.776H112.267V87.214C112.267 88.5113 112.818 89.16 113.919 89.16C114.143 89.16 114.358 89.132 114.563 89.076C114.778 89.02 114.965 88.936 115.123 88.824C115.291 88.712 115.422 88.572 115.515 88.404C115.618 88.2267 115.669 88.0167 115.669 87.774V82.776H116.789V90H115.669V88.824ZM119.174 79.64H120.294V83.952H120.35C120.537 83.4947 120.808 83.1587 121.162 82.944C121.526 82.72 121.96 82.608 122.464 82.608C122.912 82.608 123.318 82.6967 123.682 82.874C124.046 83.0513 124.354 83.3033 124.606 83.63C124.868 83.9567 125.064 84.3533 125.194 84.82C125.334 85.2867 125.404 85.8093 125.404 86.388C125.404 86.9667 125.334 87.4893 125.194 87.956C125.064 88.4227 124.868 88.8193 124.606 89.146C124.354 89.4727 124.046 89.7247 123.682 89.902C123.318 90.0793 122.912 90.168 122.464 90.168C121.484 90.168 120.78 89.72 120.35 88.824H120.294V90H119.174V79.64ZM122.156 89.16C122.791 89.16 123.29 88.964 123.654 88.572C124.018 88.1707 124.2 87.648 124.2 87.004V85.772C124.2 85.128 124.018 84.61 123.654 84.218C123.29 83.8167 122.791 83.616 122.156 83.616C121.904 83.616 121.662 83.6533 121.428 83.728C121.204 83.7933 121.008 83.8867 120.84 84.008C120.672 84.1293 120.537 84.2787 120.434 84.456C120.341 84.624 120.294 84.806 120.294 85.002V87.69C120.294 87.9233 120.341 88.1333 120.434 88.32C120.537 88.4973 120.672 88.6513 120.84 88.782C121.008 88.9033 121.204 88.9967 121.428 89.062C121.662 89.1273 121.904 89.16 122.156 89.16ZM127.295 90V82.776H128.415V83.952H128.471C128.555 83.7653 128.649 83.5927 128.751 83.434C128.863 83.266 128.994 83.1213 129.143 83C129.302 82.8787 129.484 82.7853 129.689 82.72C129.895 82.6453 130.137 82.608 130.417 82.608C130.893 82.608 131.332 82.7247 131.733 82.958C132.135 83.182 132.433 83.5553 132.629 84.078H132.657C132.788 83.686 133.031 83.3453 133.385 83.056C133.749 82.7573 134.239 82.608 134.855 82.608C135.593 82.608 136.167 82.8507 136.577 83.336C136.997 83.812 137.207 84.4887 137.207 85.366V90H136.087V85.562C136.087 84.918 135.961 84.4327 135.709 84.106C135.457 83.7793 135.056 83.616 134.505 83.616C134.281 83.616 134.067 83.644 133.861 83.7C133.665 83.756 133.488 83.84 133.329 83.952C133.171 84.064 133.045 84.2087 132.951 84.386C132.858 84.554 132.811 84.7547 132.811 84.988V90H131.691V85.562C131.691 84.918 131.565 84.4327 131.313 84.106C131.061 83.7793 130.669 83.616 130.137 83.616C129.913 83.616 129.699 83.644 129.493 83.7C129.288 83.756 129.106 83.84 128.947 83.952C128.789 84.064 128.658 84.2087 128.555 84.386C128.462 84.554 128.415 84.7547 128.415 84.988V90H127.295ZM140.078 81.082C139.835 81.082 139.658 81.026 139.546 80.914C139.443 80.7927 139.392 80.6387 139.392 80.452V80.27C139.392 80.0833 139.443 79.934 139.546 79.822C139.658 79.7007 139.835 79.64 140.078 79.64C140.321 79.64 140.493 79.7007 140.596 79.822C140.708 79.934 140.764 80.0833 140.764 80.27V80.452C140.764 80.6387 140.708 80.7927 140.596 80.914C140.493 81.026 140.321 81.082 140.078 81.082ZM139.518 82.776H140.638V90H139.518V82.776ZM144.614 90C144.222 90 143.923 89.8927 143.718 89.678C143.522 89.454 143.424 89.1647 143.424 88.81V83.756H142.234V82.776H142.906C143.149 82.776 143.312 82.7293 143.396 82.636C143.489 82.5333 143.536 82.3607 143.536 82.118V80.774H144.544V82.776H146.126V83.756H144.544V89.02H146.014V90H144.614Z" fill="white"/>
</svg>
