<svg width="16" height="16" xmlns="http://www.w3.org/2000/svg">
  <path d="M12.94 11.998C14.802 10.486 16 8.578 16 8c0-1-3.582-6-8-6-1.395 0-2.703.5-3.843 1.214L1.138.195a.666.666 0 10-.943.943l14.667 14.667a.665.665 0 00.943 0 .666.666 0 000-.943l-2.864-2.864zM10.294 9.35L6.65 5.707A2.614 2.614 0 018 5.333 2.667 2.667 0 0110.667 8c0 .495-.138.955-.374 1.35zm-4.291.4L1.625 5.371C.609 6.507 0 7.59 0 8c0 1 3.582 6 8 6a6.37 6.37 0 001.931-.321l-3.68-3.68a2.653 2.653 0 01-.249-.25z" fill="#007fd2" />
</svg>
