<svg width="14" height="16" xmlns="http://www.w3.org/2000/svg">
  <path d="M11.667 5.667c-1.167 0-1.167 0-1.167-1.167V2.67a.502.502 0 01.857-.356l2.496 2.495a.502.502 0 01-.356.858h-1.83zm-7-4.224h-.015c-1.161 0-2.319.68-2.319 1.89v10.5H1.258C.563 13.833 0 13.246 0 12.521V2.312C0 1.587.563 1 1.258 1h3.004c.224 0 .405.189.405.443zm8.166 5.39C14 6.833 14 7.767 14 8v5.688c0 .725-.664 1.312-1.482 1.312H5.497c-.82 0-1.483-.587-1.483-1.312V3.478c0-.724.664-1.311 1.483-1.311h3.026c.81 0 .81 0 .81 1.166v2.334s0 1.166 1.167 1.166h2.333z" fill="#007fd2" fill-rule="nonzero"/>
</svg>
